<?xml version="1.0" encoding="UTF-8" standalone="no" ?>
<!DOCTYPE svg PUBLIC "-//W3C//DTD SVG 1.1//EN" "http://www.w3.org/Graphics/SVG/1.1/DTD/svg11.dtd">
<svg xmlns="http://www.w3.org/2000/svg" xmlns:xlink="http://www.w3.org/1999/xlink" version="1.1" width="1080" height="1080" viewBox="0 0 1080 1080" xml:space="preserve">
<desc>Created with Fabric.js 4.2.0</desc>
<defs>
</defs>
<g transform="matrix(1 0 0 1 540 540)" id="738b1a33-bdca-44c8-94e3-9cc69a6c98bd"  >
<rect style="stroke: none; stroke-width: 1; stroke-dasharray: none; stroke-linecap: butt; stroke-dashoffset: 0; stroke-linejoin: miter; stroke-miterlimit: 4; fill: rgb(255,255,255); fill-rule: nonzero; opacity: 1;" vector-effect="non-scaling-stroke"  x="-540" y="-540" rx="0" ry="0" width="1080" height="1080" />
</g>
<g transform="matrix(Infinity NaN NaN Infinity 0 0)" id="bdcf472d-fdc6-4afd-b374-687047109c66"  >
</g>
<g transform="matrix(7.2 0 0 7.2 540 540)" id="Primary_Basket_Black"  >
<path style="stroke: rgb(0,0,0); stroke-width: 0; stroke-dasharray: none; stroke-linecap: butt; stroke-dashoffset: 0; stroke-linejoin: miter; stroke-miterlimit: 4; fill: rgb(11,11,11); fill-rule: nonzero; opacity: 1;" vector-effect="non-scaling-stroke"  transform=" translate(-30, -30)" d="M 44.077 60 L 15.924 60 C 15.228670783799853 60.00539745516116 14.589626791099434 59.618566951105215 14.272 59 L 0.2 31.372 C -0.08897825655661562 30.811513355251144 -0.05812716179888894 30.139645069416204 0.2810000000000002 29.608 C 0.6209475083084206 29.069199878781 1.2149331353613455 28.744039064480866 1.8519999999999999 28.748 L 9.239 28.748 L 22.339 3.0330000000000013 C 22.28441095985286 2.8321770459359876 22.256174109262798 2.625106808275516 22.255 2.4170000000000016 C 22.282023601831057 1.0757878430212888 23.377015626224658 0.0026361763233455626 24.7185 0.0026361763233455626 C 26.059984373775336 0.0026361763233455626 27.15497639816894 1.0757878430212886 27.182 2.417000000000001 C 27.17978890703403 3.4092854576346685 26.568624499178704 4.298432377185076 25.642999999999997 4.656000000000001 L 13.37 28.748 L 46.629 28.748 L 34.387 4.721 C 33.49001556064372 4.34679565613397 32.904257735656415 3.471901150890658 32.9 2.4999999999999996 C 32.92702360183105 1.1587878430212877 34.02201562622466 0.08563617632334442 35.3635 0.08563617632334442 C 36.70498437377534 0.08563617632334442 37.799976398168944 1.1587878430212875 37.827 2.5 C 37.82598735845974 2.727958532923714 37.79231172215771 2.9545955652363847 37.727 3.173 L 50.757 28.744 L 58.149 28.744 C 58.78491269379989 28.744576151800658 59.37685237104534 29.068616968115798 59.72 29.604 C 60.058522253716305 30.135836576062967 60.08935834365962 30.807378090384056 59.801 31.368 L 45.728 59 C 45.410889536906915 59.61857351831036 44.77209866785084 60.005485007744696 44.077 60 Z M 51.083999999999996 32.373999999999995 L 38.855 56.373999999999995 L 42.936 56.373999999999995 L 55.164 32.373999999999995 Z M 42.873 32.373999999999995 L 30.644 56.373999999999995 L 34.724 56.373999999999995 L 46.952999999999996 32.373999999999995 Z M 34.661 32.373999999999995 L 22.432000000000002 56.373999999999995 L 26.513 56.373999999999995 L 38.741 32.373999999999995 Z M 26.450000000000003 32.373999999999995 L 15.643 53.582 L 17.066000000000003 56.374 L 18.3 56.374 L 30.529 32.374 Z M 18.238000000000003 32.373999999999995 L 11.538000000000004 45.525999999999996 L 13.577000000000004 49.525999999999996 L 22.318000000000005 32.370999999999995 Z M 10.027000000000003 32.373999999999995 L 7.427000000000003 37.467999999999996 L 9.466000000000003 41.467999999999996 L 14.102000000000004 32.367999999999995 Z M 4.836000000000003 32.373999999999995 L 5.366000000000003 33.413999999999994 L 5.895000000000003 32.373999999999995 Z" stroke-linecap="round" />
</g>
</svg>